<?xml version="1.0" encoding="UTF-8" standalone="no"?>
<!-- Generator: Adobe Illustrator 15.1.0, SVG Export Plug-In . SVG Version: 6.00 Build 0)  -->

<svg
   xmlns:dc="http://purl.org/dc/elements/1.1/"
   xmlns:cc="http://creativecommons.org/ns#"
   xmlns:rdf="http://www.w3.org/1999/02/22-rdf-syntax-ns#"
   xmlns:svg="http://www.w3.org/2000/svg"
   xmlns="http://www.w3.org/2000/svg"
   xmlns:sodipodi="http://sodipodi.sourceforge.net/DTD/sodipodi-0.dtd"
   xmlns:inkscape="http://www.inkscape.org/namespaces/inkscape"
   version="1.1"
   id="Layer_1"
   x="0px"
   y="0px"
   width="100px"
   height="100px"
   viewBox="0 0 100 100"
   enable-background="new 0 0 100 100"
   xml:space="preserve"
   inkscape:version="0.48.2 r9819"
   sodipodi:docname="noun_project_749_a.svg"
   inkscape:export-filename="/Users/ryan/github/garden20/static/img/banner_2.png"
   inkscape:export-xdpi="53.470001"
   inkscape:export-ydpi="53.470001"><metadata
   id="metadata23"><rdf:RDF><cc:Work
       rdf:about=""><dc:format>image/svg+xml</dc:format><dc:type
         rdf:resource="http://purl.org/dc/dcmitype/StillImage" /><dc:title></dc:title></cc:Work></rdf:RDF></metadata><defs
   id="defs21" /><sodipodi:namedview
   pagecolor="#ffffff"
   bordercolor="#666666"
   borderopacity="1"
   objecttolerance="10"
   gridtolerance="10"
   guidetolerance="10"
   inkscape:pageopacity="0"
   inkscape:pageshadow="2"
   inkscape:window-width="1363"
   inkscape:window-height="753"
   id="namedview19"
   showgrid="false"
   inkscape:zoom="3.337544"
   inkscape:cx="34.031633"
   inkscape:cy="46.401753"
   inkscape:window-x="0"
   inkscape:window-y="0"
   inkscape:window-maximized="0"
   inkscape:current-layer="Layer_1" />

<path
   d="M39.609,48.477c3.662,0,6.637-2.974,6.654-6.65c-0.017-3.665-2.992-6.639-6.654-6.653c-3.678,0.014-6.654,2.988-6.651,6.653  C32.956,45.502,35.931,48.477,39.609,48.477z"
   id="path5" />
<path
   d="M15.349,83.429V63.026l11.883-6.405v6.05c-0.008,1.15,0.309,1.646,0.747,2.062l6.793,7.505  c3.051,3.09,7.423-1.172,4.66-4.267l-6.013-6.651V48.656c-0.043-3.896-5.306-7.453-9.069-5.513L8.451,51.715  c-2.104,1.21-2.945,3.278-2.953,5.403v26.381C5.505,90.696,15.353,90.698,15.349,83.429z"
   id="path7" />


<path
   d="M33.875,85.368l0.264,0.316C34.062,85.566,33.982,85.46,33.875,85.368z"
   id="path13" />
<path
   d="M32.266,85.257l0.284-0.144C32.447,85.148,32.357,85.199,32.266,85.257z"
   id="path15" />
<path
   d="m 75.000003,89.737457 -7.266,-3.633 -0.284,-0.144 c -0.139,-0.047 -0.282,-0.087 -0.436,-0.087 -0.344,0 -0.646,0.137 -0.89,0.342 l -0.265,0.316 -8.35546,6.67015 -3.948918,1.273392 c -1.327608,-0.374515 -0.857763,0.460484 -6.435095,-0.07391 l -3.349675,-0.524337 -9.630852,-7.344299 -0.264,-0.316 c -0.244,-0.205 -0.545,-0.342 -0.889,-0.342 -0.154,0 -0.297,0.04 -0.437,0.087 l -0.284,0.144 -7.265,3.632 -25.00000261016951,0 0,11.110003 50.00000261016951,0 49.999997,0 0,-11.110003 z"
   id="path17"
   inkscape:connector-curvature="0"
   sodipodi:nodetypes="cccsccccccccsccccccccc" />
<path
   style="color:#000000;fill:#000005;fill-opacity:1;fill-rule:nonzero;stroke:none;stroke-width:2;marker:none;visibility:visible;display:inline;overflow:visible;enable-background:accumulate"
   d="m 43.80504,57.964791 c -0.427405,0 -0.506809,1.237033 -0.506809,2.210567 l 0,4.421134 c 0,4.4901 2.534046,6.769858 5.912768,6.631699 l -0.844683,17.684526 c -1.689364,-4.421132 -5.068085,-8.842264 -10.136169,-6.631699 0,0 3.37872,11.052831 11.825532,11.052831 8.446823,0 11.825543,-11.052831 11.825543,-11.052831 -5.068085,-2.210565 -8.446814,2.210567 -10.136177,6.631699 L 50.900362,71.228191 c 3.378729,0.137054 5.912775,-2.141599 5.912775,-6.631699 l 0,-4.421134 c 0,-0.973534 -0.07906,-2.210567 -0.506809,-2.210567 -0.325909,0 -0.719011,0.498704 -1.182556,1.105285 l -2.534046,3.31585 c 0,0 -1.218904,-2.388959 -1.689364,-3.31585 -0.220286,-0.433934 -0.417199,-1.105285 -0.844683,-1.105285 -0.42749,0 -0.624381,0.671351 -0.84468,1.105285 -0.470454,0.926891 -1.689365,3.31585 -1.689365,3.31585 l -2.534038,-3.31585 C 44.52405,58.463495 44.130957,57.964791 43.80504,57.964791 z"
   id="path6080-4"
   inkscape:connector-curvature="0"
   sodipodi:nodetypes="ssscccscccsssscssscss" /></svg>