<?xml version="1.0" encoding="UTF-8" standalone="no"?>
<!-- Generator: Adobe Illustrator 15.1.0, SVG Export Plug-In . SVG Version: 6.00 Build 0)  -->

<svg
   xmlns:dc="http://purl.org/dc/elements/1.1/"
   xmlns:cc="http://creativecommons.org/ns#"
   xmlns:rdf="http://www.w3.org/1999/02/22-rdf-syntax-ns#"
   xmlns:svg="http://www.w3.org/2000/svg"
   xmlns="http://www.w3.org/2000/svg"
   xmlns:sodipodi="http://sodipodi.sourceforge.net/DTD/sodipodi-0.dtd"
   xmlns:inkscape="http://www.inkscape.org/namespaces/inkscape"
   version="1.1"
   id="Layer_1"
   x="0px"
   y="0px"
   width="220"
   height="160"
   viewBox="0 0 220 160"
   enable-background="new 0 0 100 100"
   xml:space="preserve"
   inkscape:version="0.48.2 r9819"
   sodipodi:docname="noun_project_749_a.svg"
   inkscape:export-filename="/Users/ryan/github/garden20/static/img/banner_3.png"
   inkscape:export-xdpi="90"
   inkscape:export-ydpi="90"><metadata
   id="metadata23"><rdf:RDF><cc:Work
       rdf:about=""><dc:format>image/svg+xml</dc:format><dc:type
         rdf:resource="http://purl.org/dc/dcmitype/StillImage" /><dc:title></dc:title></cc:Work></rdf:RDF></metadata><defs
   id="defs21" /><sodipodi:namedview
   pagecolor="#ffffff"
   bordercolor="#666666"
   borderopacity="1"
   objecttolerance="10"
   gridtolerance="10"
   guidetolerance="10"
   inkscape:pageopacity="0"
   inkscape:pageshadow="2"
   inkscape:window-width="1363"
   inkscape:window-height="753"
   id="namedview19"
   showgrid="false"
   inkscape:zoom="3.337544"
   inkscape:cx="44.898062"
   inkscape:cy="86.00105"
   inkscape:window-x="0"
   inkscape:window-y="0"
   inkscape:window-maximized="0"
   inkscape:current-layer="Layer_1" />

<path
   d="m 87.116864,45.662778 c 8.054281,0 14.597556,-6.541084 14.634946,-14.62615 -0.0374,-8.060882 -6.580665,-14.60196 -14.634946,-14.632753 -8.08947,0.03079 -14.634946,6.571871 -14.628348,14.632753 -0.0044,8.082862 6.538878,14.62615 14.628348,14.62615 z"
   id="path5"
   inkscape:connector-curvature="0" />
<path
   d="M 33.758911,122.53694 V 77.66215 l 26.13572,-14.08729 v 13.30649 c -0.0176,2.52933 0.679621,3.62026 1.642967,4.53521 l 14.940668,16.50665 c 6.710433,6.79621 16.326302,-2.57772 10.249301,-9.38493 L 73.502449,73.90994 V 46.056473 C 73.407877,37.487522 61.832321,29.66418 53.5559,33.931065 L 18.587305,52.784497 c -4.62758,2.661307 -6.477294,7.209704 -6.494889,11.883473 v 58.02292 c 0.0154,15.82924 21.675295,15.83364 21.666495,-0.15395 z"
   id="path7"
   inkscape:connector-curvature="0" />


<path
   d="m 74.505385,126.80161 0.580647,0.69502 c -0.169355,-0.25953 -0.345309,-0.49268 -0.580647,-0.69502 z"
   id="path13"
   inkscape:connector-curvature="0" />
<path
   d="m 70.966517,126.55748 0.624636,-0.31672 c -0.226542,0.077 -0.424489,0.18914 -0.624636,0.31672 z"
   id="path15"
   inkscape:connector-curvature="0" />
<path
   d="m 164.95659,136.41188 -15.98101,-7.99049 -0.62463,-0.31672 c -0.30572,-0.10337 -0.62024,-0.19135 -0.95895,-0.19135 -0.75659,0 -1.42082,0.30133 -1.95748,0.75221 l -0.58285,0.69501 -18.37717,14.67046 -8.68534,2.80074 c -2.91996,-0.82372 -1.88658,1.0128 -14.15348,-0.16257 l -7.367345,-1.15323 -21.182296,-16.15321 -0.580647,-0.69501 c -0.53666,-0.45088 -1.198685,-0.75221 -1.955285,-0.75221 -0.338713,0 -0.65323,0.0879 -0.961148,0.19135 l -0.624636,0.31672 -15.978792,7.9883 -54.98553061016961,0 0,24.43558 109.97105961016958,0 109.97104,0 0,-24.43558 z"
   id="path17"
   inkscape:connector-curvature="0"
   sodipodi:nodetypes="cccsccccccccsccccccccc" />
<path
   style="color:#000000;fill:#000005;fill-opacity:1;fill-rule:nonzero;stroke:none;stroke-width:2;marker:none;visibility:visible;display:inline;overflow:visible;enable-background:accumulate"
   d="m 96.345724,66.53041 c -0.940045,0 -1.114687,2.72077 -1.114687,4.86198 l 0,9.72394 c 0,9.87561 5.573433,14.88976 13.004663,14.58588 l -1.85781,38.89573 c -3.71562,-9.72394 -11.146853,-19.44786 -22.293704,-14.5859 0,0 7.431229,24.30982 26.009324,24.30982 18.57812,0 26.00934,-24.30982 26.00934,-24.30982 -11.14685,-4.86196 -18.57809,4.86196 -22.29371,14.5859 l -1.85782,-38.89573 c 7.43125,0.30145 13.00468,-4.71027 13.00468,-14.58588 l 0,-9.72394 c 0,-2.14121 -0.17388,-4.86198 -1.11468,-4.86198 -0.71681,0 -1.58141,1.09687 -2.60094,2.43099 l -5.57343,7.29295 c 0,0 -2.68089,-5.25432 -3.71563,-7.29295 -0.4845,-0.9544 -0.91759,-2.43099 -1.85781,-2.43099 -0.94023,0 -1.37328,1.47659 -1.85781,2.43099 -1.03472,2.03863 -3.71562,7.29295 -3.71562,7.29295 L 98.94666,68.9614 c -1.019532,-1.33412 -1.884108,-2.43099 -2.600936,-2.43099 z"
   id="path6080-4"
   inkscape:connector-curvature="0"
   sodipodi:nodetypes="ssscccscccsssscssscss" /></svg>